<?xml version="1.0" encoding="utf-8"?>
<!-- Generator: Adobe Illustrator 16.0.0, SVG Export Plug-In . SVG Version: 6.00 Build 0)  -->
<!DOCTYPE svg PUBLIC "-//W3C//DTD SVG 1.1//EN" "http://www.w3.org/Graphics/SVG/1.1/DTD/svg11.dtd">
<svg version="1.1" id="Layer_1" xmlns="http://www.w3.org/2000/svg" xmlns:xlink="http://www.w3.org/1999/xlink" x="0px" y="0px"
	 width="103.431px" height="44px" viewBox="0 0 103.431 44" enable-background="new 0 0 103.431 44" xml:space="preserve">
<g>
	<path fill="#FFFFFF" d="M0.114,9.539c0.1-0.261,0.274-0.473,0.523-0.637c0.25-0.163,0.506-0.31,0.772-0.441
		C2.24,8.037,2.955,7.67,3.553,7.359c0.599-0.31,1.138-0.579,1.62-0.807c0.481-0.229,0.914-0.424,1.296-0.588
		C6.85,5.8,7.224,5.637,7.59,5.474c1.495-0.653,3.015-1.241,4.561-1.764c1.544-0.521,3.114-0.995,4.709-1.42
		c3.322-0.881,6.621-1.534,9.893-1.959c3.271-0.424,6.487-0.441,9.645-0.049c0.696,0.066,1.395,0.172,2.093,0.318
		c0.698,0.147,1.378,0.368,2.044,0.662c0.231,0.098,0.48,0.229,0.747,0.391c0.266,0.165,0.481,0.36,0.648,0.588
		c0.165,0.229,0.274,0.474,0.325,0.734c0.048,0.262-0.01,0.539-0.176,0.833c-0.333,0.523-0.831,0.735-1.494,0.637
		c-0.2-0.032-0.393-0.081-0.575-0.147c-0.183-0.065-0.358-0.13-0.522-0.196c-1.562-0.457-3.19-0.619-4.886-0.489
		c-1.692,0.131-3.305,0.311-4.833,0.538c0.398,0.392,0.664,0.71,0.797,0.956c0.132,0.245,0.216,0.482,0.249,0.71
		c0.1,0.555-0.058,1.028-0.473,1.42c-0.416,0.392-0.806,0.768-1.172,1.126c-3.322,3.658-6.479,7.232-9.469,10.726
		c-2.99,3.494-5.681,7.135-8.074,10.922c-0.167,0.262-0.316,0.514-0.449,0.759c-0.133,0.245-0.282,0.498-0.448,0.759
		c-0.1,0.164-0.217,0.335-0.349,0.514c-0.134,0.18-0.317,0.302-0.549,0.368c-0.465,0.131-0.922,0.114-1.371-0.049
		s-0.79-0.457-1.021-0.881c-0.267-0.458-0.267-0.931,0-1.421c0.266-0.489,0.515-0.913,0.748-1.273
		c0.598-1.109,1.245-2.187,1.943-3.232c1.129-1.763,2.284-3.493,3.464-5.191c1.179-1.698,2.442-3.404,3.788-5.118
		c1.346-1.714,2.792-3.453,4.336-5.216c1.546-1.763,3.215-3.576,5.008-5.437c-3.091,0.556-6.321,1.339-9.693,2.351
		c-3.373,1.012-6.77,2.253-10.191,3.722c-0.666,0.294-1.313,0.604-1.944,0.931c-0.631,0.327-1.279,0.637-1.943,0.931
		c-0.499,0.229-0.947,0.27-1.346,0.123s-0.731-0.392-0.997-0.735c-0.266-0.343-0.448-0.734-0.548-1.175
		C-0.036,10.298-0.019,9.898,0.114,9.539z"/>
	<path fill="#FFFFFF" d="M25.98,28.395c-0.631-0.849-0.93-1.788-0.896-2.816c0.031-1.028,0.247-2.016,0.646-2.963
		c0.398-0.881,0.88-1.705,1.445-2.473c0.564-0.767,1.188-1.485,1.869-2.155c0.68-0.669,1.402-1.281,2.168-1.836
		c0.763-0.555,1.527-1.061,2.292-1.519c0.565-0.326,1.246-0.636,2.045-0.931c0.797-0.294,1.61-0.49,2.44-0.587
		c0.831-0.099,1.604-0.049,2.317,0.147c0.714,0.195,1.271,0.62,1.67,1.273c0.364,0.587,0.448,1.208,0.25,1.861
		c-0.2,0.654-0.466,1.257-0.798,1.812c-0.731,1.144-1.663,2.164-2.792,3.061c-1.129,0.898-2.325,1.592-3.588,2.082
		c-0.963,0.36-1.944,0.588-2.939,0.686c-0.997,0.098-1.961-0.032-2.893-0.391c-0.197,0.359-0.355,0.709-0.472,1.053
		c-0.117,0.343-0.159,0.678-0.125,1.004c0.032,0.327,0.15,0.629,0.35,0.906c0.198,0.278,0.53,0.498,0.995,0.661
		c0.831,0.294,1.796,0.246,2.893-0.146c1.095-0.392,2.184-0.931,3.264-1.617c1.079-0.686,2.076-1.412,2.99-2.179
		c0.912-0.767,1.619-1.379,2.118-1.836c0.231-0.229,0.474-0.482,0.723-0.759c0.25-0.277,0.522-0.482,0.822-0.612
		c0.299-0.098,0.58-0.114,0.847-0.048c0.266,0.065,0.499,0.195,0.698,0.391c0.2,0.197,0.34,0.417,0.424,0.662
		c0.083,0.245,0.075,0.482-0.025,0.71c-0.1,0.293-0.291,0.58-0.573,0.856c-0.283,0.278-0.539,0.531-0.771,0.759
		c-1.264,1.176-2.235,2.033-2.916,2.572c-0.682,0.538-1.305,1.004-1.87,1.396c-0.829,0.588-1.817,1.151-2.965,1.69
		c-1.146,0.539-2.31,0.915-3.488,1.126c-1.181,0.212-2.317,0.205-3.413-0.024C27.625,29.979,26.712,29.374,25.98,28.395z
		 M32.41,21.146c1.228-0.196,2.357-0.653,3.389-1.372c1.03-0.718,1.894-1.485,2.591-2.302c0.266-0.294,0.457-0.604,0.573-0.931
		c0.117-0.326,0.092-0.539-0.073-0.636c-0.865,0.229-1.679,0.555-2.442,0.979c-0.767,0.425-1.496,0.899-2.193,1.421
		c-1.197,0.849-2.243,1.795-3.14,2.84C31.514,21.212,31.943,21.212,32.41,21.146z"/>
	<path fill="#FFFFFF" d="M52.594,30.305c-0.797,0.065-1.494-0.032-2.094-0.294c-0.598-0.261-1.063-0.669-1.395-1.225
		c-0.2-0.325-0.331-0.75-0.398-1.272c-0.467,0.391-0.931,0.751-1.396,1.077c-0.465,0.327-0.947,0.636-1.446,0.93
		c-0.797,0.425-1.619,0.686-2.466,0.784c-0.849,0.098-1.653-0.049-2.419-0.441c-0.696-0.359-1.153-0.865-1.369-1.519
		c-0.215-0.653-0.29-1.347-0.224-2.081s0.249-1.453,0.547-2.155c0.3-0.701,0.599-1.281,0.897-1.739
		c1.064-1.6,2.285-3.102,3.663-4.505c1.378-1.404,2.917-2.579,4.61-3.527c0.764-0.392,1.553-0.726,2.367-1.004
		c0.813-0.277,1.652-0.383,2.518-0.318c1.328,0.099,2.309,0.588,2.939,1.47c0.2-0.261,0.456-0.514,0.773-0.759
		c0.315-0.245,0.605-0.383,0.871-0.416c0.5,0,0.948,0.196,1.347,0.587c0.365,0.36,0.565,0.776,0.599,1.249
		c0.032,0.474-0.117,0.891-0.45,1.25c-0.466,0.489-0.945,0.972-1.444,1.445c-0.499,0.474-0.981,0.988-1.445,1.542
		c-1.096,1.274-2.001,2.359-2.717,3.257c-0.715,0.899-1.32,1.821-1.819,2.768c-0.166,0.261-0.29,0.538-0.373,0.832
		c-0.083,0.293-0.116,0.539-0.101,0.734c0.018,0.197,0.107,0.335,0.275,0.417c0.166,0.082,0.431,0.024,0.796-0.171
		c0.433-0.228,0.832-0.497,1.197-0.808c0.365-0.31,0.73-0.644,1.096-1.003l4.138-4.066c0.197-0.195,0.406-0.416,0.622-0.661
		c0.217-0.245,0.456-0.433,0.723-0.563c0.532-0.196,1.021-0.13,1.471,0.196c0.448,0.327,0.64,0.768,0.574,1.322
		c-0.068,0.327-0.199,0.587-0.399,0.784c-0.199,0.196-0.399,0.409-0.599,0.637c-1.163,1.176-2.044,2.057-2.642,2.645
		c-0.597,0.588-1.131,1.11-1.594,1.567c-0.698,0.653-1.471,1.298-2.318,1.935C54.662,29.84,53.69,30.207,52.594,30.305z
		 M49.653,18.109c-1.195,0.948-2.392,2.057-3.588,3.331c-1.196,1.273-2.111,2.53-2.741,3.771c-0.067,0.099-0.158,0.27-0.274,0.515
		c-0.117,0.245-0.209,0.49-0.273,0.735c-0.067,0.245-0.084,0.465-0.05,0.661c0.032,0.195,0.182,0.293,0.448,0.293
		c0.764-0.065,1.486-0.367,2.168-0.906c0.681-0.539,1.271-1.02,1.77-1.444c1.428-1.273,2.74-2.603,3.938-3.992
		c1.194-1.388,2.392-2.767,3.588-4.139c0.065-0.652-0.126-0.979-0.572-0.979c-0.449,0-0.973,0.131-1.57,0.392
		c-0.599,0.262-1.181,0.587-1.744,0.979C50.185,17.718,49.819,17.979,49.653,18.109z"/>
	<path fill="#FFFFFF" d="M73.478,29.031c-0.365-0.619-0.507-1.281-0.423-1.983c0.082-0.703,0.257-1.347,0.522-1.935
		c0.598-1.273,1.496-2.538,2.691-3.796c1.196-1.257,2.624-2.718,4.285-4.384c0.299-0.293,0.516-0.563,0.648-0.807
		c0.133-0.246-0.083-0.286-0.648-0.123c-0.797,0.262-1.553,0.637-2.268,1.127c-0.714,0.489-1.388,0.996-2.018,1.518
		c-1.628,1.339-3.091,2.735-4.387,4.188c-1.295,1.453-2.541,2.98-3.737,4.579l-0.598,0.784c-0.233,0.262-0.516,0.425-0.847,0.49
		c-0.333,0.066-0.666,0.049-0.997-0.049c-0.333-0.097-0.632-0.26-0.898-0.489c-0.266-0.229-0.414-0.49-0.447-0.784
		c-0.067-0.261-0.033-0.514,0.099-0.759c0.133-0.245,0.267-0.481,0.398-0.71c0.832-1.371,1.745-2.62,2.742-3.747
		s2.01-2.261,3.04-3.404c0.032-0.033,0.207-0.212,0.523-0.539c0.313-0.326,0.622-0.669,0.921-1.028
		c0.301-0.359,0.516-0.661,0.648-0.906c0.132-0.245,0.033-0.318-0.299-0.22c-0.831,0.262-1.612,0.629-2.343,1.102
		c-0.73,0.474-1.429,0.972-2.093,1.494c-0.73,0.556-1.43,1.151-2.093,1.788c-0.666,0.637-1.313,1.282-1.944,1.935
		c-0.93,0.947-1.753,1.91-2.467,2.89c-0.717,0.979-1.371,1.992-1.969,3.036c-0.167,0.229-0.315,0.465-0.448,0.71
		c-0.132,0.246-0.332,0.417-0.599,0.514c-0.497,0.164-1.013,0.115-1.545-0.147c-0.53-0.26-0.88-0.637-1.046-1.126
		c-0.101-0.261-0.101-0.506,0-0.734c0.1-0.229,0.216-0.441,0.348-0.637c0.732-1.175,1.412-2.253,2.044-3.232
		c0.632-0.98,1.271-1.927,1.919-2.841c0.647-0.914,1.354-1.828,2.118-2.743c0.764-0.914,1.661-1.91,2.691-2.987
		c0.564-0.588,0.963-0.987,1.195-1.2c0.232-0.212,0.432-0.35,0.599-0.417c0.466-0.163,0.914-0.098,1.346,0.196
		c0.432,0.294,0.73,0.669,0.897,1.126c0.731-0.489,1.47-0.897,2.217-1.224c0.749-0.327,1.504-0.522,2.269-0.588
		c0.663-0.065,1.286,0.017,1.869,0.245c0.581,0.229,0.989,0.669,1.22,1.322c0.033,0.098,0.058,0.188,0.076,0.27
		c0.016,0.082,0.024,0.171,0.024,0.27c0.897-0.653,1.86-1.216,2.891-1.69c1.029-0.473,2.095-0.612,3.19-0.416
		c0.964,0.164,1.627,0.669,1.993,1.518c0.165,0.424,0.225,0.85,0.175,1.274c-0.05,0.424-0.167,0.841-0.35,1.249
		c-0.183,0.409-0.406,0.8-0.673,1.175c-0.267,0.376-0.531,0.728-0.799,1.053c-0.863,1.045-1.751,2.017-2.665,2.914
		c-0.914,0.898-1.786,1.837-2.617,2.816c-0.597,0.718-0.989,1.249-1.17,1.591c-0.185,0.343-0.241,0.572-0.176,0.686
		c0.067,0.115,0.233,0.123,0.499,0.024c0.266-0.097,0.564-0.236,0.897-0.416c0.331-0.179,0.664-0.383,0.997-0.612
		c0.33-0.228,0.597-0.441,0.797-0.637c0.862-0.653,1.646-1.347,2.343-2.082c0.698-0.734,1.428-1.445,2.192-2.13
		c0.199-0.197,0.415-0.424,0.647-0.686c0.233-0.261,0.482-0.458,0.749-0.588c0.53-0.196,1.021-0.123,1.47,0.22
		c0.448,0.343,0.64,0.792,0.573,1.347c-0.067,0.326-0.217,0.596-0.449,0.808c-0.231,0.213-0.446,0.433-0.646,0.662
		c-0.599,0.62-1.122,1.143-1.57,1.566c-0.449,0.425-0.839,0.801-1.172,1.127c-0.333,0.327-0.632,0.604-0.896,0.833
		c-0.267,0.229-0.516,0.441-0.748,0.636c-0.896,0.784-1.794,1.42-2.692,1.91c-0.896,0.49-1.728,0.809-2.491,0.956
		c-0.765,0.147-1.463,0.13-2.092-0.049C74.291,29.954,73.811,29.587,73.478,29.031z"/>
	<path fill="#FFFFFF" d="M103.431,15.514c0,0.131-0.033,0.253-0.101,0.367c-0.066,0.115-0.191,0.254-0.373,0.417
		c-0.183,0.164-0.407,0.385-0.672,0.661c-0.268,0.278-0.599,0.629-0.997,1.053c-1.596,1.666-3.024,3.281-4.286,4.849
		c-1.264,1.567-2.477,3.119-3.638,4.653c-1.829,2.448-3.524,4.767-5.084,6.954c-1.563,2.188-2.975,4.424-4.237,6.71
		c-0.166,0.261-0.324,0.53-0.474,0.808c-0.149,0.277-0.29,0.546-0.425,0.809c-0.131,0.228-0.247,0.441-0.347,0.636
		c-0.101,0.195-0.267,0.342-0.499,0.44c-0.465,0.163-0.931,0.171-1.396,0.025c-0.465-0.147-0.83-0.417-1.097-0.808
		c-0.3-0.424-0.315-0.882-0.051-1.371c0.135-0.262,0.258-0.515,0.375-0.76c0.117-0.244,0.258-0.498,0.423-0.759
		c0.299-0.556,0.607-1.119,0.922-1.689c0.316-0.571,0.641-1.134,0.973-1.689c1.396-2.285,2.907-4.571,4.534-6.857
		c-0.265,0.098-0.522,0.18-0.771,0.245c-0.249,0.066-0.507,0.098-0.772,0.098c-0.632,0-1.228-0.115-1.794-0.343
		c-0.565-0.228-0.996-0.604-1.297-1.126c-0.366-0.653-0.506-1.331-0.424-2.033c0.084-0.702,0.258-1.363,0.524-1.984
		c0.332-0.849,0.831-1.755,1.495-2.718c0.665-0.962,1.396-1.91,2.192-2.84c0.799-0.931,1.604-1.82,2.418-2.669
		c0.814-0.849,1.535-1.583,2.168-2.204c0.232-0.196,0.473-0.416,0.722-0.662c0.251-0.245,0.541-0.383,0.873-0.416
		c0.563,0,1.021,0.204,1.37,0.612c0.35,0.409,0.523,0.841,0.523,1.298c0.032,0.458-0.1,0.833-0.398,1.127
		c-1.031,1.078-1.887,1.983-2.567,2.718c-0.681,0.735-1.254,1.355-1.719,1.861c-0.465,0.507-0.855,0.948-1.171,1.322
		c-0.316,0.376-0.607,0.727-0.873,1.053c-0.166,0.196-0.408,0.507-0.723,0.931c-0.316,0.425-0.599,0.857-0.848,1.298
		c-0.248,0.44-0.439,0.85-0.571,1.225c-0.135,0.375-0.101,0.596,0.099,0.661c0.101,0.065,0.257,0.058,0.473-0.024
		c0.217-0.081,0.441-0.195,0.675-0.342c0.23-0.147,0.472-0.302,0.722-0.466c0.249-0.163,0.457-0.31,0.623-0.44
		c1.229-0.882,2.383-1.837,3.463-2.865c1.079-1.029,2.119-2.073,3.116-3.135c0.996-1.061,1.976-2.13,2.94-3.208
		c0.964-1.077,1.977-2.105,3.039-3.085c0.166-0.163,0.35-0.293,0.55-0.392c0.199-0.098,0.43-0.113,0.697-0.049
		c0.498,0.131,0.905,0.384,1.221,0.759C103.272,14.542,103.431,14.992,103.431,15.514z"/>
</g>
</svg>
